<?xml version="1.0" encoding="UTF-8"?>
<svg width="400px" height="400px" viewBox="0 0 400 400" version="1.1" xmlns="http://www.w3.org/2000/svg" xmlns:xlink="http://www.w3.org/1999/xlink">
    <title>trunkrs-nl</title>
    <g id="Page-1" stroke="none" stroke-width="1" fill="none" fill-rule="evenodd">
        <g id="trunkrs-nl">
            <rect id="Rectangle" fill="#201047" x="0" y="0" width="400" height="400"></rect>
            <g transform="translate(45.000000, 180.000000)" fill-rule="nonzero" id="Group">
                <g transform="translate(67.000000, 0.000000)" fill="#FFFFFF">
                    <polygon id="Path" points="22.7032806 6.84873913 22.7032806 37.5654783 15.7568058 37.5654783 15.7568058 6.84873913 0.00687769784 6.84873913 0.178820144 1.84826087 38.3328489 1.84826087 38.4514892 6.84873913"></polygon>
                    <path d="M36.9005683,37.5654783 L36.9005683,11.0132609 L41.8868993,10.7419565 L42.1843597,13.221 L42.4818201,16.8734348 L42.6004604,16.8734348 C45.362069,12.6243463 50.2119067,10.1502244 55.3242014,10.3824783 C56.7013089,10.3846885 58.0748594,10.5204285 59.4250288,10.7877391 L59.0691079,15.4304348 C57.7050911,15.1182353 56.308315,14.9668281 54.9081007,14.9793913 C48.3106691,14.9793913 43.2005396,18.8115652 43.2005396,24.6717391 L43.2005396,37.5586957 L36.9005683,37.5654783 Z" id="Path"></path>
                    <path d="M96.9635036,28.046087 C96.9635036,34.2674348 91.7330144,38.0996087 80.8009137,38.0996087 C69.9238345,38.0996087 64.6950647,34.2233478 64.6950647,28.046087 L64.6950647,10.7877391 L70.995036,10.7877391 L70.995036,27.8765217 C70.995036,31.6188261 74.2052014,33.8723478 80.7957554,33.8723478 C87.3863094,33.8723478 90.6704101,31.6595217 90.6704101,27.8765217 L90.6704101,10.7877391 L96.9703813,10.7877391 L96.9635036,28.046087 Z" id="Path"></path>
                    <path d="M131.231633,37.5671739 L131.231633,20.976913 C131.231633,16.5597391 127.844367,14.5758261 121.484216,14.5758261 C117.978309,14.5758261 113.638482,15.7475217 111.559698,17.867087 L111.559698,37.5671739 L105.259727,37.5671739 L105.259727,10.9233913 L109.658014,10.652087 L110.846137,13.7636087 C114.50093,11.4155095 118.787534,10.2060948 123.148619,10.2926087 C132.122295,10.2926087 137.531604,13.9450435 137.531604,20.9752174 L137.531604,37.5654783 L131.231633,37.5671739 Z" id="Path"></path>
                    <polygon id="Path" points="152.260194 20.3749565 158.857626 20.3749565 171.220288 9.35321739 178.887201 9.35321739 164.148295 22.2706957 179.482122 37.5637826 171.815209 37.5637826 158.799165 24.5072609 152.265353 24.5072609 152.265353 37.5637826 145.965381 37.5637826 145.965381 0.284869565 152.265353 0"></polygon>
                    <path d="M184.590532,37.5654783 L184.590532,11.0132609 L189.576863,10.7419565 L189.874324,13.221 L190.171784,16.8734348 L190.290424,16.8734348 C193.052033,12.6243463 197.901871,10.1502244 203.014165,10.3824783 C204.391275,10.3846447 205.76483,10.5203851 207.114993,10.7877391 L206.759072,15.4304348 C205.395055,15.1182353 203.998279,14.9668281 202.598065,14.9793913 C196.000633,14.9793913 190.888784,18.8115652 190.888784,24.6717391 L190.888784,37.5586957 L184.590532,37.5654783 Z" id="Path"></path>
                    <path d="M224.470863,38.1521739 C219.99044,38.2843409 215.53858,37.4056991 211.45482,35.5832609 L212.345482,31.6171304 C216.144983,33.4167675 220.314624,34.326675 224.529324,34.275913 C230.531835,34.275913 232.968259,32.292 232.968259,30.0367826 C232.968259,24.1766087 211.513281,27.2864348 211.513281,17.9976522 C211.513281,13.3990435 216.327669,10.3333043 225.836086,10.3333043 C229.705201,10.296059 233.556185,10.8591112 237.247906,12.0018261 L236.652986,15.878087 C233.064893,14.8231373 229.342905,14.2767544 225.598806,14.2553478 C220.665777,14.2553478 217.575971,15.6525652 217.575971,17.7721304 C217.575971,23.2270435 238.852129,20.0714348 238.852129,29.5382609 C238.852129,34.4115652 234.632662,38.1521739 224.470863,38.1521739 L224.470863,38.1521739 Z" id="Path"></path>
                </g>
                <g transform="translate(0.000000, 2.000000)" id="Path">
                    <g transform="translate(0.235889, 0.000000)" fill="#00D163">
                        <path d="M0.312809689,10.5231873 C0.0225764479,10.791238 -0.0751798201,11.2126155 0.0667791021,11.5837 C0.208738024,11.9547845 0.561186633,12.1991797 0.953813149,12.1987883 L18.0848443,12.1520028 C18.45921,12.1508156 18.8198127,12.0087955 19.0967751,11.7534628 L31.855308,-0.00173278237 L12.9824567,0.0502506887 C12.1409726,0.0521433416 11.330172,0.370783572 10.7073218,0.944366391 L0.312809689,10.5231873 Z"></path>
                    </g>
                    <path d="M56.1980554,0.00519834711 L35.5833841,0.0571818182 C35.1492218,0.0601575202 34.7329038,0.232692006 34.4210311,0.538895317 L22.1992318,12.3876612 C21.8944035,12.6890648 21.7234989,13.1031091 21.7257439,13.5347631 L21.7257439,22.6803884 C21.7401105,23.2004092 21.3361824,23.6339169 20.8232111,23.6490138 L12.9380138,23.6698072 C12.1170678,23.6756411 11.3300974,24.0028167 10.7415087,24.5829835 L0.314519031,34.7353554 C0.0209132186,35.017179 -0.0790100126,35.4491291 0.0603950671,35.8338874 C0.199800147,36.2186457 0.551770198,36.4823453 0.955522491,36.5045262 L21.2505467,36.4525427 C21.5613516,36.4507832 21.8592851,36.3264956 22.0812872,36.1059862 L34.4432526,24.1237961 C34.748081,23.8223925 34.9189855,23.4083482 34.9167405,22.9766942 L34.9167405,13.8310689 C34.902374,13.3110481 35.306302,12.8775404 35.8192734,12.8624435 L44.275391,12.8399174 C44.7226513,12.8354767 45.1510858,12.6567893 45.4719308,12.340876 L56.7023114,1.40875207 C56.934286,1.18552058 57.0135346,0.844062979 56.9040784,0.539400951 C56.7946222,0.234738923 56.5173154,0.02491859 56.1980554,0.00519834711 L56.1980554,0.00519834711 Z" fill="#FFFFFF"></path>
                </g>
                <g transform="translate(306.000000, 7.000000)" fill="#FFFFFF">
                    <path d="M3.63666667,1.77 C3.65634108,2.50998333 3.22546587,3.18803023 2.54717408,3.48448033 C1.8688823,3.78093043 1.07858468,3.63660193 0.548861398,3.11953748 C0.0191381143,2.60247302 -0.144259555,1.81589674 0.135701054,1.13063441 C0.415661663,0.445372076 1.08309063,-0.00177400181 1.82333333,9.39955037e-14 C2.29956961,-0.00937959636 2.75966198,0.172685615 3.10052538,0.50540338 C3.44138877,0.838121145 3.63452693,1.29367617 3.63666667,1.77 Z M0.453333333,1.77 C0.441995661,2.14269488 0.582871915,2.50394521 0.843525004,2.77057225 C1.10417809,3.0371993 1.46214392,3.1862241 1.835,3.18333333 C2.2017434,3.18176244 2.55218667,3.03159669 2.8062816,2.76713695 C3.06037653,2.50267721 3.19641869,2.14651325 3.18333333,1.78 C3.2100094,1.27637419 2.95715417,0.79898908 2.52554161,0.538103724 C2.09392906,0.277218368 1.55371762,0.275239571 1.12020542,0.532955972 C0.686693226,0.790672373 0.430347497,1.26619228 0.453333333,1.77 L0.453333333,1.77 Z M1.54333333,2.69833333 L1.13333333,2.69833333 L1.13333333,0.928333333 C1.35779613,0.889034117 1.58548832,0.871175906 1.81333333,0.875 C2.02660808,0.857688203 2.24030843,0.902860635 2.42833333,1.005 C2.5397204,1.10260553 2.60098553,1.2453533 2.595,1.39333333 C2.57912082,1.59700598 2.42897544,1.76489582 2.22833333,1.80333333 L2.22833333,1.825 C2.4076655,1.89799756 2.5320401,2.06404407 2.55166667,2.25666667 C2.5694234,2.41023992 2.61339446,2.55962878 2.68166667,2.69833333 L2.23833333,2.69833333 C2.17030588,2.56227017 2.12311222,2.41675639 2.09833333,2.26666667 C2.065,2.07166667 1.95833333,1.98666667 1.73166667,1.98666667 L1.53833333,1.98666667 L1.54333333,2.69833333 Z M1.55333333,1.69833333 L1.74666667,1.69833333 C1.97333333,1.69833333 2.15666667,1.62333333 2.15666667,1.44 C2.15666667,1.25666667 2.03833333,1.17 1.77833333,1.17 C1.70219031,1.16832925 1.62611432,1.17560122 1.55166667,1.19166667 L1.55333333,1.69833333 Z" id="Shape"></path>
                </g>
            </g>
        </g>
    </g>
</svg>